<?xml version="1.0" standalone="no"?>
<!DOCTYPE svg PUBLIC "-//W3C//DTD SVG 20010904//EN"
 "http://www.w3.org/TR/2001/REC-SVG-20010904/DTD/svg10.dtd">
<svg version="1.0" xmlns="http://www.w3.org/2000/svg"
 width="640.000000pt" height="443.000000pt" viewBox="0 0 640.000000 443.000000"
 preserveAspectRatio="xMidYMid meet">

<g transform="translate(0.000000,443.000000) scale(0.100000,-0.100000)"
fill="#D32F2F" stroke="none">
<path d="M2400 4403 c-764 -16 -1507 -77 -1705 -140 -229 -72 -423 -263 -501
-493 -39 -115 -88 -450 -113 -770 -70 -878 -6 -2035 131 -2380 84 -212 257
-377 470 -451 167 -57 575 -96 1358 -131 390 -18 2072 -18 2430 0 821 40 1150
81 1323 168 171 86 300 227 376 408 17 42 41 132 56 212 152 822 147 2104 -11
2824 -83 378 -335 606 -734 664 -248 36 -781 68 -1420 86 -316 9 -1314 11
-1660 3z m1015 -1720 c440 -253 799 -464 799 -469 -2 -10 -1586 -923 -1616
-931 -17 -5 -18 44 -18 932 0 888 1 937 18 932 9 -2 377 -211 817 -464z"/>
</g>
</svg>
